<svg xmlns="http://www.w3.org/2000/svg" version="1" width="298" height="253" viewBox="-0.1 -0.1 297.5 252.5"><path fill="#e95520" d="M207 4v6l8-5-7 12-10 15-12 22-12 20q-3 5-15 11l-21 9q1 23-9 36-6 7-21 12-14 5-21 4-11-2-19-8-8-7-9-15l-1-13-1-15q-9-4-20-12-13-10-17-16-5-7-11-29Q3 18 1 1l2 4 4 3-1-6q3 5 10 11 5 6 10 9l18 16v-4l6 6v-6l9 18 6 17h56q5-11 12-20 4-6 9-10l5-7 5-8v7l4-3-1 5q7-7 20-12l17-6q4-1 9-5l6-6M170 127q9 2 16 14 8 13 8 29 0 6 3 13l6 9q3 3 4 7l1 7-4 15-6 16q-2 6-7 8h-12q-7-1-7-7t6-12l2-6 1-9-1-5-3-2q-7-3-14-9-7-5-9-10l5-1-6-1 1-37 16-19M130 178l18 13q3 3 2 9l-5 12-8 14q-4 5-9 6h-9q-5-1-6-5-1-5 3-9t6-13l-11 6-9 6-11 6q0 6-2 11l-2 9q-3 5-8 7-4 2-9 1-7-2-8-7-1-4 4-10 2-4 3-15v-18l14-19 47-4"/><path fill="#0d131a" d="M100 123v-7l3-6q3-4 9-6h8q2 5 1 10-1 6-5 9-4 2-9 2-4 0-7-2M61 105l5 1q4 1 6 4 4 4 4 13l-5 2q-4 0-6-2-3-2-4-6v-12"/><path fill="#faed00" d="M256 13l2 11 6 6q10 7 14 17 3 9 2 19l3-4 2-4q2 8-2 22l3-2h3l-3 4 4-1h6q-8 4-10 11l-1 6-2 6 5-4v12 10l1 8q-1 5-5 10l6 1-7 5 7 4-6 1-6 3 5 1 4 3 3 3q2 1 2 3l-9-1-10 2q-11 16-21 20l4 1 5 3-8-1q-4 0-7 2l-7 2h-8q4 3 5 6-6-3-10-3h-7l-5-1 6 4-7-1-8-3q-11-11-11-26t-8-27q-7-11-16-14l6-6q-4-1-9 1 2-4 5-6-5 0-9 5v-10l2-10-4 6-4 6q0-4-2-7l-2-2q0-4-3-6l-4-2-3-4 20-9 10-8 5-6 5-9q6 0 9-4 3-3 5-10l1 7 3-3v9l3-3 7-3-2 3-1 5q5-4 8-4l6 2q5 2 11-2l-3 6q4 4 9 2 5-3 4-11l3 5 2 7 4-9 1 6q7-8 5-18-1-9-10-11l3-1h3q-3-3-3-10l3 3v-8l2-5"/><path fill="#faed00" d="M167 118l5-2q-4 3-6 7 6-3 10-2l-6 6-2 7-1 8-5 8 5-1 6-3-5 8-7 5 3 1h4l-8 5 5 1 4 1q-6 2-8 5l-9 11 7 1-8 3-6 8q-2 3-6 4l-6 1 5 4h-6l-7-1 6-9-5-5-1 5-6-8-3 3-1-4-8 4 3-5-6 2-7 6-6 5-5 4-5 2 1-3-3 1-2 2 1-4q-5 2-7 1l-4 1-4 3q0-4 4-7l-6 1 3-3-6-2q-4 0-6-2l5-1-6-3-8-2 6-3-2-2-4-2 8-1-7-5-3-8-2-5-4-6 2 1 3 1-1-4-3-4 6 3-1-8-1-8q1-2-1-5l-2-5 4 1 4 4v-4l3 1q-1-5 1-8l3-4 2-4 1-5 2 3 1 7 1 7q0 9 10 16 8 6 16 7 10 1 22-2 14-5 22-13 5-5 8-17l1-19 5-2 3 4 5 2 2 6q3 1 4 9l5-8 2-4v9l-1 11 4-3"/><path fill="#faed00" d="M95 27q9 0 17 11t9 23q2 12-3 21-4 10-12 11-3 7-9 10-5 2-13 2-7 0-14-6-8-6-8-15-1-8 2-14t9-10l11-6q7-5 9-9 3-5 1-11t-7-10q5 0 8 3"/><path fill="#3e4e57" d="M15 42l-5-25 19 15 16 16q5 5 10 15l7 14v3l-9-4 5 10-17-9q-11-7-15-12-5-5-11-23M183 46q-10 17-16 23-5 6-18 12-10 5-21 8l8-12-12 5q8-23 11-27 6-8 27-19 20-12 36-16l-15 26"/><path fill="#fff" d="M111 112l-1 3-2 1-2-1v-6l2-1 2 1 1 3M66 108h1l1 3v3l-1 1-2-1-1-3v-2l2-1"/><path fill="#d7cd00" d="M167 141l-5 9 4-1 7-3-5 8-7 5 3 1h4l-4 3-4 2 5 1 4 1q-6 2-8 5l-9 11 7 1-7 3-7 8q-4 6-13 5l3 2 3 2h-6q-4 1-7-1l6-9-5-5-1 5-6-8-3 3-1-4-8 4 3-5-6 2-7 6-6 5-5 4-5 2 1-3-3 1-2 2 1-4q-5 2-7 1l-4 1-4 3q0-4 4-7l-6 1 3-3-6-2q-4 0-6-2l5-1-6-3-8-2 7-3-7-4 8-1-7-5-3-8-2-5-4-6 2 1 3 1-1-4-3-4 6 3-1-8-1-8q1-2-1-5l-2-5 4 5q3 3 3 6l2 7 3 6v-7q2 2 4 9t1 10q2-1 3-5l2-5 2 8q0 5-2 7 3 0 5-2 2-1 3-5l1 6-1 6 5-6 5-6v10q2 4 1 10l3-4q2-4 0-7 2 0 4 5 2 4 1 6 3-2 4-5v-9q4 4 3 6 2-1 2-3l1-2 1 2q2 2 3-1h7q1 2 3 1l4-3v4l-2 6q2 0 6-4 3-3 3-7l3 6 2 6 3-4q3-2 3-5v-5l3 4q2 3 1 5 2 0 3-3 2-2 1-4l-1-6 1-5 3 6q2 3 4 3l1-5-3-4q2 1 7-1l7-5q-4 2-8 1l8-5q4-3 4-6l-3 2-4 1 5-8 2-8v-2l4-3 5-2q-4 3-6 7 6-3 10-2l-6 6-2 7-1 7M283 87q5-4 12-5-7 3-9 9l-1 6-2 7 5-4v10q-2 6 0 12v8q0 5-4 10l6 1-7 5 7 4-6 1-6 3 5 1 4 3 3 3q2 1 2 3l-9-1-10 2q-11 16-21 20l4 1 5 3-8-1q-4 0-7 2l-7 2h-8q4 3 5 6-6-3-10-3h-7l-5-1 6 4-7-1-8-3q-11-11-11-26 0-8-3-18-4-11-11-18 8 3 12 10l3 4 5 3-2-6q0-3-4-7h4q3 0 4 2l3 5q1 2 4 2-2-2-1-7l4-9 1 8q1 5 5 7 2 0 3-2v-4q1-7 5-9-1 5 2 11 2 5 0 9 4-1 7-8 3-6 1-10 3 1 5 4t1 6l3-4 1-5q0-6 4-9v5l3 6q4-2 5-8l3-9q1 4 4 5 4 1 11-4-5 0-8-3t1-4q3-1 6-6h-6l-5-1q4-1 6-5l5-6 4-3 4-3M106 94q-3 7-12 10-10 3-18-1-7-3-12-12-4-9-2-17 0 7 5 13 5 7 13 8 11 2 18-4 9-7 5-20l4 7 1 6q6-3 9-12 4-12-2-28 4 5 5 13 2 8 1 15-3 18-15 22"/><path fill="#ca4819" d="M1 2l3 7 3 6 3 2q1 10 6 27 6 17 10 22l15 11q11 7 17 9l-5-10 3 4 3 5v2l-1 3v5q-11-5-23-14-12-8-16-15-4-5-10-29L1 2M182 47l16-27 4-1q5-8 13-14l-21 34-19 34q-4 7-23 15-14 6-24 8-1 1-3-1l-1-4 4-6 8-8-5 7-2 5q13-4 24-10 9-5 14-10 5-4 15-22M163 170h7l-2 2-4 2h6l4 1-5 2-4 4-3 4-4 6-4-6 5-1q-3-2-7-1l6-6q3-6 5-7M167 141l1-7q0-3 3-8l1 1v9l1 5-1 5-7 4h-3l5-9M164 163l4-3h-4l-3-1 6-4h6q-4 3-5 6l5-1h4l-8 7-9-2 4-2M144 196l2-2 2-2q2 0 2 3l-1 6q0 4-5 13l-8 13q-3 4-7 5h-9q-4-1-6-4-2-2-1-5 0 4 7 5 6 1 10-2 5-4 7-9 3-6-1-5-3 1-6-1l-6 3-6 1 3-6 1-5 3-1q5 3 13 0l-3-1-2-2q3 1 7-1l4-3"/><path fill="#ca4819" d="M102 188l2-2 6-2-3 5 8-4 1 4 3-3q4 3 6 8l1-5 2 3 3 2-5 7q-2 3-8 6l-8 5-12 8q-4 3-10 3l-8-2-5-4q-2-4-1-7 0 2 2 3l5 3q8 3 14-1l20-12q5-5 4-10l-7 4 2-5-6 2-6 3 3-6h-6l3-3M194 173q0 5 3 11l6 8q4 4 5 8l-1 8-4 15-5 13q-2 6-7 8t-12 1l-6-3q-2-3-1-7 2 5 9 5 8-1 11-5t6-13l4-13 1-7-3-7q-4-5-5-10-2-5-1-12M82 200l-1 3-3 3-3 3q-3 0-5 2l-1-10q5 0 9-2l-1 2v2l2-2 3-1M86 223h5q-1 10-5 20-3 9-16 8-5-1-7-4t-1-6q1 4 8 5 9 1 11-4l3-8 2-11M106 94q7-2 11-9 3-6 4-13 1 9-3 16-3 7-10 10-5 7-14 10-7 2-15 1-9-2-14-11-6-10-4-19 0 10 5 16 5 7 14 9 8 2 16-1 8-4 10-9"/><path fill="#d7cd00" d="M70 139q9 6 16 6 13 1 25-3 11-5 20-13-4 11-18 17-13 6-26 5-10-1-17-7-8-7-10-16 2 6 10 11"/><path fill="#27333a" d="M10 21v-4l18 14 16 16q13 15 18 30v3l-3-1q-7-12-23-31-15-18-26-27M196 24q-23 10-39 22-20 15-30 35l-3 1 6-16 5-11q7-8 28-20 21-11 35-15l-2 4"/><path fill="#0d131a" d="M82 131h6l-1 2h-2-1l-2-2M86 24h1q3-1 7 1l6 6v1h-1l-4-5-6-2q6 5 6 14 0 5-4 10-5 5-14 10-8 5-11 10t-3 13q0 9 6 15 7 7 16 7 11 0 17-5 6-6 5-17v-1l1 1q2 11-5 18-7 6-18 6-9 0-17-7-7-7-7-17 0-8 3-14 4-6 12-11l13-8q5-5 5-10 0-9-7-14l-1-1"/><path fill="#0d131a" d="M110 37q-7-9-15-10l-2-2q10 1 18 10 7 9 10 21 3 13-1 24-4 12-14 15l1-2q7-3 11-14 4-10 1-23-2-10-9-19"/><path fill="#0d131a" d="M137 94l2-1q0 12-2 21t-6 15q-6 9-21 14-13 4-23 4-7-1-15-6-9-5-12-12l-2-6-1-8-1-12 1-13 1-1 1 1-1 13 1 12 1 8 1 6q3 6 11 11 8 4 15 4h11l13-4q13-5 18-12 9-12 8-34M27 32L7 15l-1-1 2 1 20 16 17 15 9 14q5 8 8 17v2q-3-9-8-17-5-9-11-15L27 32"/><path fill="#0d131a" d="M9 16l1 1q2 14 7 28 5 13 9 19 3 4 12 10l18 11-3-8q-1-2 1-1l8 3v1l-7-2 3 8 1 1h-2L38 76q-10-7-13-11-5-6-10-20-5-15-6-29M202 19q-13 4-33 14-24 12-32 22-3 3-8 15-4 14-6 16l-1 1v-1l6-16 7-17q9-10 33-21 21-11 34-14l1 1h-1"/><path fill="#0d131a" d="M197 20h2q-22 42-33 52-11 9-37 18h-1v-1l6-11-11 6 1-2 12-6q2-1 1 1l-7 11q24-9 35-18 9-8 32-50M47 42v2l-1-1-8-9-10-8-12-11L7 4v5H6L2 4l8 36q6 19 10 25 4 7 16 16l21 13v2L34 82q-12-9-16-15-4-7-10-29L0 1V0l1 1 5 6V2 1l1 1q3 5 10 11l12 11q11 8 18 18M153 31l-2 1v-5q-3 7-11 15l-10 12-9 18v-5l10-17q3-6 8-10 9-9 12-16l1-1 1 1v7"/><path fill="#0d131a" d="M207 9l-1 1V6l-5 5-8 4q-13 4-23 9t-14 10h-1v-5l-5 5-1 1v-1l3-4 4-3h1l-1 4q10-10 36-17 8-2 14-10 1-2 1 0v5"/><path fill="#0d131a" d="M206 11h-2l1-1 6-4 6-3-3 5-21 36-17 30q-6 7-18 13-13 7-30 10h-1l1-1q17-5 29-11t17-12l18-31 21-36-7 5M53 110l1-5q0-2 1 0l3 3v3l-3-4q0 5-4 8-2 2-3 7v6l-1-2 1-8 2-4 3-4"/><path fill="#0d131a" d="M45 130q-3-4-7-5 3 4 3 8v9q1 7 3 10l-2-1q-3-5-2-18 0-4-4-9v-1h1l4 2 4 3-1-3v-1h1q3 1 5 6v1l-1-1-3-4v3l-1 1"/><path fill="#0d131a" d="M36 148l-1-1h1q3 0 6 3 4 2 5 5v2l-1-1q-1-3-4-4l-4-3 3 7h-1l-4-2q3 2 4 5l1 5 3 6 7 7 1 1h-7l4 3 4 2 1 1h-1l-4-2-5-4h-2l1-1h6l-7-7-2-6-2-5q-1-3-4-5v-1h1l4 1-3-6M42 185v-1l7-2 1 1q-3 0-5 2l8 2 5 3h-2q-7-4-13-4l-1-1"/><path fill="#0d131a" d="M52 191v-1l9-2h2l-1 1-7 2q5 3 10 3l-2 1-6-1-5-2v-1"/><path fill="#0d131a" d="M61 198q2-6 10-8h2l-2 1q-6 2-8 6l4-1v1q-3 3-3 5 3-2 7-2 5 0 7-2v1l-3 2h-4l-3 1-5 2q-2 2-1 0l3-6-4 1v-1"/><path fill="#0d131a" d="M83 193h1l-1 1q-4 3-5 7l4-2 1 1-1 3h-1v-2l-4 2-1 1v-1l2-6 5-4M101 166h-1l1-1 5 1h1l-1 1-5-1M106 170h1l-1 1q-5 0-8 3h-1l1-1q3-3 8-3M95 181l3-4 5-3h1v1q-5 2-7 5h6l-1 1-6 1q-1 1-1-1"/><path fill="#0d131a" d="M97 189l2-6q2-3 5-4h1l-1 1q-4 3-5 8l5-3 7-2-2 1-11 6q-1 1-1-1"/><path fill="#0d131a" d="M112 181h1l-1 1-3 5 6-3 2 4 2-3h1l5 7 1-3h1l5 6 1-9 1-1v1 11h-1l-6-6-1 3h-1l-6-7-2 2h-1l-2-4-6 4h-2v-1q2-4 6-7M142 92h1q5 4 5 11v1l-1-1q0-7-5-11"/><path fill="#0d131a" d="M146 97l-1-2q5 0 8 6 2 5 1 11l-1 1v-1q0-7-2-11t-5-4"/><path fill="#0d131a" d="M153 105v-3q3 2 4 5v10l-1-1v-7l-3-4"/><path fill="#0d131a" d="M162 112l2-9-4 5-3 7v-3q1-4 5-8l3-4-1 7v12q0 7-7 12h-1l1-1 4-6 1-5v-7"/><path fill="#0d131a" d="M163 122v-2q3-4 9-4h1l-1 1-4 4 8-1 1 1-6 6-2 7-2 10q-2 5-8 7h-1l1-1q5-2 7-7l1-9q0-4 2-7l5-6q-4 0-7 2h-1q1-4 4-6l-4 2-3 3M169 167h1l-1 1-5 2-4 4q-4 7-7 9h-2q3-2 8-10l3-3 5-3-9-1 2-1q6 0 9 2"/><path fill="#0d131a" d="M159 183l2 1-2 1q-4 0-6 2l-7 7-4 5q-4 2-8 1l4 3h1l-1 1-7 1q-4 0-7-2l1-1 5 2 7-1-3-1-2-2v-1h1q4 1 8-1l4-5 6-7q3-2 7-2l-7-1-6 2h-1v-1l7-2q4-1 8 1M196 47l1-2v2l1 6 2-4 1-1 1 2q1 5-1 10-1 5-4 8l-5 5-2 3v0q-1-4 6-10l4-6 1-9-2 2-1 2-1-1v-6q-1 6-6 10-4 4-9 4l1-3q5 1 8-3 4-3 5-9"/><path fill="#0d131a" d="M200 61v-2l4-4 6-2h2l-3 4-1 4-2 1q1-5 4-8l-6 3-4 4"/><path fill="#0d131a" d="M232 57l2-1v2q-4 8-12 8h-1l1-1q6-1 9-6l-5 1-5-1q-5-2-10 1-4 2-7 7l-1 1v-2q2-5 8-8 5-3 10 0l6 1 5-2"/><path fill="#0d131a" d="M251 57v-1l1 1q2 2 2 5 0 4-2 6l-1 1v-1q2-4 1-8-1 4-4 7h-1v-1l-1-4-2-5-2 6-3 3h-5l-5-3 1-1q1 2 4 2h4l3-3q2-3 1-6 0-3 2 0 4 5 4 10l3-8"/><path fill="#0d131a" d="M250 22l1 1 3 2 1 2-3-2q0 5 3 8 1 1-1 1h-4q7 3 9 10v11q-2 6-6 10v-2q3-4 4-9 2-5 0-10l-3-5q-2-3-6-4v-1l2-1h3l-3-10v-1"/><path fill="#0d131a" d="M256 16q-2 4-1 8 0 5 3 9v2l-1-1q-4-5-4-11l2-10 1-1 1 1 1 9q2 5 6 7 10 7 14 16 5 10 2 21l-1 2q1-12-2-21-4-10-14-17-4-2-6-7l-1-7"/><path fill="#0d131a" d="M278 69l-1 1v-1l4-5 3-7 1-1 1 1v11l-2 12-3 3 3-13 1-10q-3 6-7 9"/><path fill="#0d131a" d="M283 81l-2 4-1 1v-2l3-4q2-3 5-3h2l-1 2-1 2 3-1h4l2 1-1 1q-7 3-9 11l-2 8-3 7q-2 3-6 5h-1v-1l6-6q2-2 2-5l2-10q2-6 8-9l-7 1v-1l1-3-4 2"/><path fill="#0d131a" d="M289 121q1 5-1 12-1 7-6 10l-2 1 1-1q4-5 6-11v-20-10l-4 4 1-3 3-4 1-1 1 2q1 5-1 11-1 6 1 10"/><path fill="#0d131a" d="M284 140h6q2 1 1 2l-5 3-5 2h-2l2-1 7-4h-5l1-2"/><path fill="#0d131a" d="M282 147l1-1 7 3q2 1-1 2l-5 1-5 2 6 1q3 1 3 4l-2-1q-1-2-3-2l-6-1v-1l4-3 7-2-6-2"/><path fill="#0d131a" d="M277 165q-7 1-11 5h-1v-1q4-4 11-6 8-2 14 0-1-3-4-4h-7l1-1h8q3 1 5 5v2h-2q-6-2-14 0"/><path fill="#0d131a" d="M266 173l7-8 2-1-7 9-6 7q-6 5-9 5h-3l6-2 4-4 6-6"/><path fill="#0d131a" d="M240 182l-1-1h1l6 3h4q7 1 11 4l1 1h-2q-8-1-13 1-7 3-13 3-7 0-11-4l-1-2 1 1q5 4 12 3l11-2q5-2 11-1-3-2-7-2l-10-4"/><path fill="#0d131a" d="M220 196l-6-2-1-1 6 1h7l8 2-4-4h2l5 5 1 2h-2q-5-3-10-3h-6"/><path fill="#0d131a" d="M206 195l-2-2q6 3 13 4-5-3-8-8v-1l1 1 4 4 6 4 1 1-1 1-14-4M90 223h2l-2 13-4 9q-2 4-7 6H69q-6-1-8-5v-5l3-6 1-2 1-3 3-16-1-13h2v18q0 7-2 13l-3 4q-3 6-2 10 2 3 7 4t9-1q3-1 5-5 4-6 6-21"/><path fill="#0d131a" d="M65 246l2-5h1v1l-1 5q0 2 2 3l-3-1-1-3M72 247q0-3 2-5h1v1l-1 4q0 3 3 3l-3 1q-2-1-2-4M79 220l-3-2v-4l3-4h2l-1 1q-2 2-2 5-1 2 1 4"/><path fill="#0d131a" d="M103 186l4-2-12 11-13 9q-6 3-7 7-1 5 3 8 5 3 10 3 6 0 11-4l22-14 4-3 5-8 1 2-5 7-4 4q-8 3-22 14-6 4-12 4t-11-3q-4-4-4-9 1-6 9-10 8-3 21-16"/><path fill="#0d131a" d="M87 222l-3 1q-2-2-1-5 0-4 2-5l1-1v2q-2 2-2 5t3 3M118 231l-2-1v-4q0-2 3-3h1l-1 1q-2 1-2 4l1 3"/><path fill="#0d131a" d="M147 192l2-1q2 1 2 4 1 3-1 7l-4 10-6 12q-5 7-10 9h-11q-5-1-6-5-2-4 1-8l1-2 2-2 4-11 2-1-5 12-2 4q-3 4-2 7t5 4q6 2 11 0 4-2 8-8l10-21q2-4 1-7 0-3-2-3"/><path fill="#0d131a" d="M127 232l-3 1q-2-1-2-5 0-3 3-5h1v1q-2 2-2 5t3 3M170 127l1-1q11 4 18 16 6 13 6 27t10 24l3 6v7q-1 9-8 28-3 9-9 11-4 2-11 1-9-1-9-9 0-5 5-10l1-1 1-2q2-6 2-14-1-4-3-5-8-3-14-8l-10-12h2q3 5 9 10t13 8l3 3q2 1 2 5 0 8-3 14l-1 3q-5 5-5 9 0 3 2 5l6 3 9-1q5-2 8-11 8-20 9-27l-1-7q0-3-3-5-5-5-7-12-3-6-3-13 0-14-7-26-7-13-16-16"/><path fill="#0d131a" d="M178 244h-3v-4q0-3 2-4l1-1v1l-2 5q0 2 2 3M187 245l-3 1q-2-2-2-5t2-5h1l-1 1v5q0 3 3 3M44 34l5 5v-5l1-1 1 1 8 17 6 18-1 2q-2-9-7-20l-6-14-1 4v1l-1-1-5-5 1 4-2-2v-3-2l1 1M171 146l2-1v2l-4 8-7 4 6 1h1l-1 1-5 4-6 2h-1l1-1 9-5-5-1q-2-1 0-2l7-5 4-6q-6 4-11 4l1-2h3l6-3"/></svg>